<svg viewBox="0 0 1016 400" xmlns="http://www.w3.org/2000/svg"><g><g><g><g><g><line x1="61.953125" y1="377" x2="56.953125" y2="377" style="visibility: inherit;" fill="rgb(0, 0, 0)" stroke="rgb(204, 204, 204)" stroke-width="1px"></line><line x1="61.953125" y1="348" x2="56.953125" y2="348" style="visibility: inherit;" fill="rgb(0, 0, 0)" stroke="rgb(204, 204, 204)" stroke-width="1px"></line><line x1="61.953125" y1="319" x2="56.953125" y2="319" style="visibility: inherit;" fill="rgb(0, 0, 0)" stroke="rgb(204, 204, 204)" stroke-width="1px"></line><line x1="61.953125" y1="290" x2="56.953125" y2="290" style="visibility: inherit;" fill="rgb(0, 0, 0)" stroke="rgb(204, 204, 204)" stroke-width="1px"></line><line x1="61.953125" y1="261" x2="56.953125" y2="261" style="visibility: inherit;" fill="rgb(0, 0, 0)" stroke="rgb(204, 204, 204)" stroke-width="1px"></line><line x1="61.953125" y1="232" x2="56.953125" y2="232" style="visibility: inherit;" fill="rgb(0, 0, 0)" stroke="rgb(204, 204, 204)" stroke-width="1px"></line><line x1="61.953125" y1="203.00000000000003" x2="56.953125" y2="203.00000000000003" style="visibility: inherit;" fill="rgb(0, 0, 0)" stroke="rgb(204, 204, 204)" stroke-width="1px"></line><line x1="61.953125" y1="174" x2="56.953125" y2="174" style="visibility: inherit;" fill="rgb(0, 0, 0)" stroke="rgb(204, 204, 204)" stroke-width="1px"></line><line x1="61.953125" y1="145.00000000000003" x2="56.953125" y2="145.00000000000003" style="visibility: inherit;" fill="rgb(0, 0, 0)" stroke="rgb(204, 204, 204)" stroke-width="1px"></line><line x1="61.953125" y1="116" x2="56.953125" y2="116" style="visibility: inherit;" fill="rgb(0, 0, 0)" stroke="rgb(204, 204, 204)" stroke-width="1px"></line><line x1="61.953125" y1="87.00000000000003" x2="56.953125" y2="87.00000000000003" style="visibility: inherit;" fill="rgb(0, 0, 0)" stroke="rgb(204, 204, 204)" stroke-width="1px"></line><line x1="61.953125" y1="58" x2="56.953125" y2="58" style="visibility: inherit;" fill="rgb(0, 0, 0)" stroke="rgb(204, 204, 204)" stroke-width="1px"></line><line x1="61.953125" y1="28.999999999999982" x2="56.953125" y2="28.999999999999982" style="visibility: inherit;" fill="rgb(0, 0, 0)" stroke="rgb(204, 204, 204)" stroke-width="1px"></line><line x1="61.953125" y1="0" x2="56.953125" y2="0" style="visibility: inherit;" fill="rgb(0, 0, 0)" stroke="rgb(204, 204, 204)" stroke-width="1px"></line></g><g transform="translate(51.953125, 0)"><text x="0" y="377" dx="0em" dy="0.3em" style="text-anchor: end; visibility: hidden; font-family: Roboto, sans-serif; font-size: 12px; font-weight: 200;" fill="rgb(33, 33, 33)" stroke="none" stroke-width="1px">-0.05</text><text x="0" y="348" dx="0em" dy="0.3em" style="text-anchor: end; visibility: inherit; font-family: Roboto, sans-serif; font-size: 12px; font-weight: 200;" fill="rgb(33, 33, 33)" stroke="none" stroke-width="1px">0</text><text x="0" y="319" dx="0em" dy="0.3em" style="text-anchor: end; visibility: inherit; font-family: Roboto, sans-serif; font-size: 12px; font-weight: 200;" fill="rgb(33, 33, 33)" stroke="none" stroke-width="1px">0.05</text><text x="0" y="290" dx="0em" dy="0.3em" style="text-anchor: end; visibility: inherit; font-family: Roboto, sans-serif; font-size: 12px; font-weight: 200;" fill="rgb(33, 33, 33)" stroke="none" stroke-width="1px">0.1</text><text x="0" y="261" dx="0em" dy="0.3em" style="text-anchor: end; visibility: inherit; font-family: Roboto, sans-serif; font-size: 12px; font-weight: 200;" fill="rgb(33, 33, 33)" stroke="none" stroke-width="1px">0.15</text><text x="0" y="232" dx="0em" dy="0.3em" style="text-anchor: end; visibility: inherit; font-family: Roboto, sans-serif; font-size: 12px; font-weight: 200;" fill="rgb(33, 33, 33)" stroke="none" stroke-width="1px">0.2</text><text x="0" y="203.00000000000003" dx="0em" dy="0.3em" style="text-anchor: end; visibility: inherit; font-family: Roboto, sans-serif; font-size: 12px; font-weight: 200;" fill="rgb(33, 33, 33)" stroke="none" stroke-width="1px">0.25</text><text x="0" y="174" dx="0em" dy="0.3em" style="text-anchor: end; visibility: inherit; font-family: Roboto, sans-serif; font-size: 12px; font-weight: 200;" fill="rgb(33, 33, 33)" stroke="none" stroke-width="1px">0.3</text><text x="0" y="145.00000000000003" dx="0em" dy="0.3em" style="text-anchor: end; visibility: inherit; font-family: Roboto, sans-serif; font-size: 12px; font-weight: 200;" fill="rgb(33, 33, 33)" stroke="none" stroke-width="1px">0.35</text><text x="0" y="116" dx="0em" dy="0.3em" style="text-anchor: end; visibility: inherit; font-family: Roboto, sans-serif; font-size: 12px; font-weight: 200;" fill="rgb(33, 33, 33)" stroke="none" stroke-width="1px">0.4</text><text x="0" y="87.00000000000003" dx="0em" dy="0.3em" style="text-anchor: end; visibility: inherit; font-family: Roboto, sans-serif; font-size: 12px; font-weight: 200;" fill="rgb(33, 33, 33)" stroke="none" stroke-width="1px">0.45</text><text x="0" y="58" dx="0em" dy="0.3em" style="text-anchor: end; visibility: inherit; font-family: Roboto, sans-serif; font-size: 12px; font-weight: 200;" fill="rgb(33, 33, 33)" stroke="none" stroke-width="1px">0.5</text><text x="0" y="28.999999999999982" dx="0em" dy="0.3em" style="text-anchor: end; visibility: inherit; font-family: Roboto, sans-serif; font-size: 12px; font-weight: 200;" fill="rgb(33, 33, 33)" stroke="none" stroke-width="1px">0.55</text><text x="0" y="0" dx="0em" dy="0.3em" style="text-anchor: end; visibility: hidden; font-family: Roboto, sans-serif; font-size: 12px; font-weight: 200;" fill="rgb(33, 33, 33)" stroke="none" stroke-width="1px">0.6</text></g><line x1="61.953125" y1="0" x2="61.953125" y2="377" fill="rgb(0, 0, 0)" stroke="rgb(204, 204, 204)" stroke-width="1px"></line></g></g><g transform="translate(61, 0)" clip-path="url(#clip_0)"><clipPath id="clip_0"><rect width="954" height="377"></rect></clipPath><g><g><g><line x1="0" y1="0" x2="0" y2="377" fill="rgb(0, 0, 0)" stroke="rgb(66, 66, 66)" stroke-width="1px" opacity="0.25"></line><line x1="86.7315340909091" y1="0" x2="86.7315340909091" y2="377" fill="rgb(0, 0, 0)" stroke="rgb(66, 66, 66)" stroke-width="1px" opacity="0.25"></line><line x1="173.4630681818182" y1="0" x2="173.4630681818182" y2="377" fill="rgb(0, 0, 0)" stroke="rgb(66, 66, 66)" stroke-width="1px" opacity="0.25"></line><line x1="260.19460227272725" y1="0" x2="260.19460227272725" y2="377" fill="rgb(0, 0, 0)" stroke="rgb(66, 66, 66)" stroke-width="1px" opacity="0.25"></line><line x1="346.9261363636364" y1="0" x2="346.9261363636364" y2="377" fill="rgb(0, 0, 0)" stroke="rgb(66, 66, 66)" stroke-width="1px" opacity="0.25"></line><line x1="433.65767045454544" y1="0" x2="433.65767045454544" y2="377" fill="rgb(0, 0, 0)" stroke="rgb(66, 66, 66)" stroke-width="1px" opacity="0.25"></line><line x1="520.3892045454545" y1="0" x2="520.3892045454545" y2="377" fill="rgb(0, 0, 0)" stroke="rgb(66, 66, 66)" stroke-width="1px" opacity="0.25"></line><line x1="607.1207386363636" y1="0" x2="607.1207386363636" y2="377" fill="rgb(0, 0, 0)" stroke="rgb(66, 66, 66)" stroke-width="1px" opacity="0.25"></line><line x1="693.8522727272727" y1="0" x2="693.8522727272727" y2="377" fill="rgb(0, 0, 0)" stroke="rgb(66, 66, 66)" stroke-width="1px" opacity="0.25"></line><line x1="780.5838068181819" y1="0" x2="780.5838068181819" y2="377" fill="rgb(0, 0, 0)" stroke="rgb(66, 66, 66)" stroke-width="1px" opacity="0.25"></line><line x1="867.3153409090909" y1="0" x2="867.3153409090909" y2="377" fill="rgb(0, 0, 0)" stroke="rgb(66, 66, 66)" stroke-width="1px" opacity="0.25"></line><line x1="954.046875" y1="0" x2="954.046875" y2="377" fill="rgb(0, 0, 0)" stroke="rgb(66, 66, 66)" stroke-width="1px" opacity="0.25"></line></g><g><line x1="0" y1="377" x2="954.046875" y2="377" fill="rgb(0, 0, 0)" stroke="rgb(66, 66, 66)" stroke-width="1px" opacity="0.25"></line><line x1="0" y1="348" x2="954.046875" y2="348" fill="rgb(0, 0, 0)" stroke="rgb(66, 66, 66)" stroke-width="1px" opacity="0.25"></line><line x1="0" y1="319" x2="954.046875" y2="319" fill="rgb(0, 0, 0)" stroke="rgb(66, 66, 66)" stroke-width="1px" opacity="0.25"></line><line x1="0" y1="290" x2="954.046875" y2="290" fill="rgb(0, 0, 0)" stroke="rgb(66, 66, 66)" stroke-width="1px" opacity="0.25"></line><line x1="0" y1="261" x2="954.046875" y2="261" fill="rgb(0, 0, 0)" stroke="rgb(66, 66, 66)" stroke-width="1px" opacity="0.25"></line><line x1="0" y1="232" x2="954.046875" y2="232" fill="rgb(0, 0, 0)" stroke="rgb(66, 66, 66)" stroke-width="1px" opacity="0.25"></line><line x1="0" y1="203.00000000000003" x2="954.046875" y2="203.00000000000003" fill="rgb(0, 0, 0)" stroke="rgb(66, 66, 66)" stroke-width="1px" opacity="0.25"></line><line x1="0" y1="174" x2="954.046875" y2="174" fill="rgb(0, 0, 0)" stroke="rgb(66, 66, 66)" stroke-width="1px" opacity="0.25"></line><line x1="0" y1="145.00000000000003" x2="954.046875" y2="145.00000000000003" fill="rgb(0, 0, 0)" stroke="rgb(66, 66, 66)" stroke-width="1px" opacity="0.25"></line><line x1="0" y1="116" x2="954.046875" y2="116" fill="rgb(0, 0, 0)" stroke="rgb(66, 66, 66)" stroke-width="1px" opacity="0.25"></line><line x1="0" y1="87.00000000000003" x2="954.046875" y2="87.00000000000003" fill="rgb(0, 0, 0)" stroke="rgb(66, 66, 66)" stroke-width="1px" opacity="0.25"></line><line x1="0" y1="58" x2="954.046875" y2="58" fill="rgb(0, 0, 0)" stroke="rgb(66, 66, 66)" stroke-width="1px" opacity="0.25"></line><line x1="0" y1="28.999999999999982" x2="954.046875" y2="28.999999999999982" fill="rgb(0, 0, 0)" stroke="rgb(66, 66, 66)" stroke-width="1px" opacity="0.25"></line><line x1="0" y1="0" x2="954.046875" y2="0" fill="rgb(0, 0, 0)" stroke="rgb(66, 66, 66)" stroke-width="1px" opacity="0.25"></line></g></g></g><g><g><line x1="0" y1="348" x2="954.046875" y2="348" fill="rgb(0, 0, 0)" stroke="rgb(153, 153, 153)" stroke-width="1.5px"></line></g></g><g><g><line x1="0" y1="0" x2="0" y2="377" fill="rgb(0, 0, 0)" stroke="rgb(153, 153, 153)" stroke-width="1.5px"></line></g></g><g><g><g><g><g><path stroke="rgb(238, 51, 119)" stroke-width="2px" d="M52.01290099431818,178.12291133403778L52.87154318181818,284.2171637267602L57.8716161221591,316.6709084031196L60.881200355113634,19.245639001998136L61.76152542613636,161.63694495189895L64.92722642045455,168.4308288181714L66.32360411931818,172.6061580032952L69.28982258522727,243.77677406233312L76.84847578125,285.7886337709409L90.14875653409092,243.78040556654602L91.26325674715909,285.5141458403296L92.11322578125,310.3436173582765L93.00222400568182,258.7222181513422L93.48792059659091,294.2900163251908L94.55905504261364,248.92438217849025L98.73084183238636,288.4960527336134L99.32061626420455,312.1154648370977L99.77162024147728,326.2491323060603L100.63893558238637,334.7917069919961L101.59298245738637,274.1932555401952L104.23395767045454,236.55837418954354L104.93214651988636,280.77837387087135L105.67803771306818,307.60135283559475L106.28949502840909,257.7656047620858L107.83331633522727,227.75816088796714L108.10652066761364,275.50810860618435L108.33202265625,304.28427834272685L108.63558302556818,254.63848028217134L111.29390454545455,291.5748173455514L113.85682137784092,248.42051563266523L115.90802215909092,222.81447648862633L116.70595227272727,206.46326025445083L119.52472713068182,262.64758610568504L123.05036399147727,231.69364873796997L125.07120873579545,212.80526925178708L125.44415433238635,266.2205125524759L129.0912153409091,298.65635602634677L130.7738071022727,318.21966314236903L131.68448821022727,329.89555831795826L135.3055297585227,336.7270466818466L135.88229446022729,277.9293153013505L137.5648862215909,305.742561219742L138.21103615056816,258.4318485830378L141.67162436079545,230.22854888988599L142.71673934659088,213.37525413190818L143.26748458806819,203.45027707607537L143.58839126420455,197.89059981439166L144.75926697443182,193.19924197623718L149.17823863636363,254.4810749745702L153.73164417613637,291.20693515345846L154.40815014204546,250.03333558185037L154.6119692471591,225.52913273293478L157.43508068181816,212.12651751586662L162.32673920454545,265.69522127007417L162.8731478693182,171.54297790816452L164.87664630681817,179.12800522978014L170.32338664772726,246.08678974933892L170.70934197443182,286.7413291702622L173.66688728693182,246.68762186586255L174.39976875,286.85600628246203L174.86378245738635,249.03352368944374L175.51426896306816,288.2869537620536L176.76753963068182,310.93495431684227L177.5567965909091,323.98652239228954L178.05116633522726,332.3967236278097L181.00003849431818,277.58811075673333L186.4988177556818,243.91458601466312L187.29674786931818,284.22556456304494L187.68270319602271,309.3219407588357L189.54309460227273,324.1889640642026L197.99074602272728,331.42733382599465L199.50854786931816,337.3206461521501L202.77832670454544,341.31148097865366L209.2615088778409,284.20304077835436L210.4714137784091,247.66990405304165L211.9241669744318,287.23529429500064L212.96928196022728,311.0158013113723L215.84009573863636,325.24652528626535L220.77945660511364,333.97568267874607L223.41175866477275,281.8314008372586L224.87318501420452,307.68537873037525L225.65376882102274,322.5255526364319L226.2608895596591,276.3259318149371L227.13254147727272,246.38410031058092L228.14296384943182,286.2788418215227L230.12911598011362,249.30597129355147L231.33034772727274,287.7486632459776L232.67034992897726,310.3808097738574L237.04161924715908,260.9690761505693L237.44492088068182,295.1446229339617L239.0451176846591,263.602353293954L239.26628309659088,296.4745940554194L241.1917231534091,261.30483454394647L241.5516590198864,239.4865530605812L243.6288792613636,281.1166713878929L244.22299026988634,252.20934638055678L245.05994957386363,290.0202606081069L246.68182926136365,253.61422974819544L248.9238394176136,290.1984058526433L249.3184678977273,312.8939204225928L249.49626754261362,272.79606306612436L251.73827769886364,251.23893592393367L251.88572130681817,289.52233355312626L252.3540715909091,257.7027331177537L253.7851419034091,184.19792089367775L258.83291718749996,246.76395167711297L259.3836624289773,286.75912146227313L261.2006880681818,309.6463790622756L261.98994502840907,324.2039467286262L264.9474903409091,273.48966816611255L265.2510507102273,248.87807662217116L266.5910529119318,239.3851437981623L267.45403167613637,282.2334360079883L268.8113801846591,247.09747041445482L270.26846995738634,284.98385493267483L271.521740625,308.67491415178125L272.7186357954546,222.86943056008425L272.91378174715913,223.5176994193864L273.3561125710227,265.8918714516921L274.0412916903409,244.16604990920803L275.5287375,284.79913710042166L275.98841463068186,309.2660711566915L278.59036065340905,272.73896572353306L278.74214083806817,250.62441533423578L279.07172066761365,136.4367631531782L285.1559377840909,220.39018887844844L288.8246816761364,126.08649808506466L289.457821875,161.4303067346829L291.56106157670456,234.96648797961578L292.6148497159091,234.15580345137423L293.82041803977273,235.02583613958066L295.5854047585227,279.1926641790039L297.67563473011364,262.3179047541598L302.90554623579544,295.15167462448954L304.3192702414773,261.4883618332188L304.5534453835227,238.4762712703491L305.5985603693182,280.1705539874044L307.012284375,211.1250784308795L309.8830981534091,223.42619666523242L310.6506722301136,220.22925508657997L312.1988301136364,268.01289114141406L312.92303842329545,208.82757082452738L313.69928565340905,205.87811426443082L313.8250463778409,211.75952951980958L315.2387703835227,127.5750746302207L315.4425894886364,165.3095827801466L320.81560802556817,193.84214338680746L321.61787471590907,153.33059745443254L322.1642833806818,110.06118100531333L322.5285558238636,61.88130565671585L323.2527641335227,124.98394620530884L324.0897234375,207.51223787136723L327.91892066761363,262.5800881100765L329.7402828835227,286.9218395658177L330.20863316761364,229.2177051131632L331.0889582386364,273.6004826739255L331.46624041193184,213.7985458680882L334.32838103693183,226.9956279938754L334.90514573863635,225.61016370924332L336.6657958806818,264.63329569740307L337.79330582386365,288.91180177475934L338.3613973721591,268.62632460561946L339.58864857954546,194.01149761180616L339.8228237215909,69.49165417850335L340.46897365056816,132.79348102867795L341.2322111505682,217.42062523758526L342.6372620028409,181.61773649928634L342.81506164772725,246.42347554163737L343.82548401988635,242.9759077536857L344.7231553977273,191.2984108631489L346.4968152698864,252.84471139488682L347.22536015625,287.57554615097087L348.3918992897727,300.27993802164104L348.6347475852273,247.72257111033264L348.8429032670455,245.90852817034997L350.1265299715909,246.59917945943042L351.54025397727276,286.1684628935561L351.7007073153409,275.03695582222383L352.66342734374996,183.4397881440606L353.26187492897725,240.2586184985808L353.4830403409091,203.45448435827328L353.7432349431818,198.91271766116756L354.7796767755682,84.2024214749964L355.0355348011364,101.9693536094089L355.5212313920455,83.49349103756306L355.9982548295455,186.32280578844285L356.26712258522724,246.3159552820476L357.8066073153409,285.2019329552622L358.1145042613636,273.60876291303464L359.23334105113634,299.4722933847226L360.17871477272723,314.1261741357158L360.56467009943185,287.32408869487705L362.10415482954545,305.7548251761357L362.58551484375,247.86976350625514L364.22907741477275,234.58128932285408L365.3262313210227,224.8046136806494L365.63412826704547,270.85001313597473L366.1545174715909,221.95652315563268L368.8952339488636,265.58118089465086L371.07653203125,258.0175429369675L371.4754970880682,243.41640847835941L372.2474077414773,281.93555524894L372.63769964488637,260.79981245367765L372.7894798295455,260.93512314420366L372.90223082386365,294.5478006891097L373.4226200284091,268.82455074141535L374.3376377130682,267.50264498800107L375.36974296875,294.2329638612871L375.91181505681817,272.44330290631086L376.89188139204543,260.5423897247054L378.1755080965909,287.5991541409813L379.9101387784091,187.70216998245257L380.72541519886363,249.12875484696588L381.1287168323864,208.4054151968453L381.6014036931818,254.36139342166746L381.9786858664773,254.2331194220648L382.1521489346591,287.13317802778874L382.68554786931816,310.47105434600707L383.19292734375,251.55735895075915L383.67428735795454,276.44925872706483L384.68904630681817,185.87086720599598L384.89720198863637,184.01060864528338L385.18341605113636,241.96132068157388L385.3785620028409,247.6432209987652L385.7515075994318,284.55206672723364L386.2718968039773,307.59330329969686L386.6188229403409,248.8412051777551L389.29449076704543,283.5490024584835L390.12711349431817,296.63531057228477L390.47837620738636,264.49278333300254L390.9987654119318,289.4122161597842L392.1392850852273,263.16153319661817L392.77676186079543,240.9845800637305L393.4792872869318,254.58099726671577L394.4463438920455,248.16713759800555L395.67359509943185,284.4326828211591L396.49754467329547,289.9290480309752L396.9702315340909,271.547260003926L397.29113821022725,275.7744418607006L397.4472549715909,293.68673260366023L398.9520470880682,311.13175897213875L400.53923416193186,320.1322038496319L400.9902381392045,281.24819569139385L401.1550280539772,305.29900717347084L401.48460788352276,295.28599017625584L402.0310165482955,265.0382897005411L402.79859062500003,289.75838261520454L403.08914126420456,311.6742304618692L403.86538849431815,233.38898699614614L404.1646122869318,277.2841100059939L404.3814411221591,274.069967708766L404.9278497869318,221.14019487010216L405.37885376420456,243.04839685980542L406.5800855113636,242.37845043792765L407.5037763494318,211.389787986603L407.6729028409091,255.58562726660168L409.1950412642045,258.8830051593995L409.5896697443182,225.52059274751045L409.9626153409091,159.3361891140824L410.64345788352273,167.59423780621802L411.08145213068184,211.02253651727267L413.1369894886364,226.09313242500446L414.1647581676136,200.1912838510598L414.5160208806818,247.49606123518498L415.0450832386363,286.009792505661L415.65654055397727,260.2230455511566L416.43712436079545,201.77846319876647L416.8187431107954,256.354519751087L417.10929375,291.59126387322857L417.3564786221591,284.77303217819286L417.6860584517045,282.409324544495L418.37557414772726,233.8227137433444L418.78321235795454,255.39596526068175L419.34263075284093,258.38815593863563L420.2142826704545,292.6585317359569L420.6305940340909,229.1176071111084L420.8951252130682,257.1240449871851L421.15098323863634,226.7350523547073L422.65577535511363,239.1986180589044L422.9159699573864,228.2709950474169L423.49707123579543,241.27629682226575L424.39474261363637,229.13221166612868L425.26639453125,271.0478975062499L425.85616896306817,204.05810051470576L426.9880154829545,205.2342112380837L427.2005077414773,255.82232048920244L427.92037947443185,272.1744028497424L428.47112471590907,266.9311037640981L429.08691860795454,296.6077226210363L430.1146872869318,307.3375015562014L430.9516465909091,294.0000547352574L431.6541720170454,237.8993559231247L433.1589641335228,252.52059600054534L434.8458924715909,255.31740840255807L435.68285177556817,225.23813037860143L436.7496496448864,234.4266215609774L437.4478384943182,258.30089979453476L437.6169649857955,287.7160456781602L438.80952357954544,299.6236919882903L439.4253174715909,279.6604012681847L439.63780973011364,217.21870675288474L440.24059389204547,245.09349779249925L440.87373409090907,225.97431533313812L441.45917194602276,266.53302088246954L442.4002090909091,261.4892526082171L443.02901271306814,291.5794149227126L443.14176370738636,310.1168508015385L443.6838357954545,320.15800454511105L444.84170177556814,300.7434670346609L446.0125774857955,313.06547775373645L447.93801754261364,295.62179950777164L448.35866548295456,287.48362803401636L448.8356889204546,278.14312109912686L449.08287379261367,303.3763191122726L449.49918515625,278.62386895530915L449.62060930397723,219.1994351465314L450.4011931107955,186.9960916947609L450.87387997159095,205.29343772597827L451.02999673295454,219.3941390554173L452.1965358664773,264.51335571647064L452.5434620028409,258.5646657612346L452.9771196732954,250.09171984591617L453.21129481534086,277.44698529838644L453.7360205965909,283.12492166399437L454.90255973011364,248.79682032131836L455.25815901988636,272.97130024351884L456.1601669744318,252.46253352116472L458.1029533380682,271.7466011807378L459.1827609375,239.24050631314847L460.9694305397727,266.7626712571998L461.17324964488637,234.77049500056629L461.4074247869318,208.19061936323956L461.8150629971591,257.6043581866331L462.3137693181818,252.83144564051076L462.46554950284093,213.30149461399702L463.0119581676136,241.40138680679314L463.3241916903409,256.0158276375694L463.8185614346591,229.1037971387245L464.26089225852274,259.584222365018L464.52108686079544,266.2399074128844L465.49681661931817,271.7782913977848L465.6442602272727,277.81353965609946L466.7847799005682,282.266046388207L467.0926768465909,274.17761379674556L467.3008325284091,279.4673400294512L467.51332478693183,272.49168326686197L468.6408347301136,284.96145392793636L468.84465383522723,219.72560392223733L469.34336015625,239.68062447549661L470.9522301136364,262.4175421538458L471.27313678977276,252.62492628946933L473.6235613636363,239.75332691702263L474.52556931818185,279.9715483199538L475.10233401988637,299.76546682184824L476.11709296875,317.6402933330291L476.4076436079545,313.5462674576612L477.3139881392046,277.0120928453548L477.47010490056823,266.0511272530045L477.9124357244318,288.7287600386313L478.13360113636367,301.0280817597015L478.4718541193182,312.52369618707314L478.84479971590906,309.5544176596011L479.8161928977273,289.1041192112926L482.32707080965906,245.37161826482787L482.89082578125,252.04792983169187L483.1857129971591,274.3519626190354L483.84487265625,294.8456371325308L484.1917987926136,227.20429323304018L484.7859098011363,238.34135898463921L485.3626745028409,261.8013957769453L485.62720568181817,215.77680914585474L485.90908316761363,258.444125896601L487.2751048295454,235.28421149605995L488.8406090198863,238.848368155685L489.01407208806825,263.7698915289204L489.7642998579546,225.09720312871698L490.24999644886367,266.01478951763016L491.7504519886363,282.47798382992084L491.8632029829546,248.4014461741122L492.3835921875,260.292430430965L492.9126545454546,271.2211944045522L493.9274134943182,297.99744380008565L494.79039225852273,287.25027814204327L495.5015908380681,306.22320538279314L497.058421875,280.3582156748587L497.34463593749996,234.46253038948856L497.55712819602275,228.5003228754168L499.93357223011367,182.7914170605162L500.10269872159085,196.7191366781127L501.8720220170455,243.7489243226845L503.60665269886357,272.35724351272574L503.81047180397724,271.9481561986541L504.19209055397727,293.4665891294441L506.86775838068183,246.37065934924848L507.6440056107955,251.20924126975873L508.5460135653409,206.34593465252607L509.88167919034095,255.6506569702857L510.21993217329543,263.464124722447L510.37171235795455,271.24743714521287L511.43851022727273,289.10343573445056L511.8071192471591,254.89013813706623L512.2364403409091,288.31802275641195L512.5183178267046,304.1177545718159L512.791522159091,313.30195718597207L513.5634328125,322.5208040660073L513.7499056107955,311.2093915215403L516.8939237215909,289.4608126205963L517.6831806818182,305.55778004662767L517.8046048295455,242.7658339139019L518.5244765625,274.3622093794462L518.7846711647727,294.6923667548726L519.1446070312501,301.3427238797325L519.7257083096591,293.19210626692643L519.9338639914772,224.88006907708086L520.2287512073864,160.69813746217872L525.9703787642045,189.47320801022045L526.9374353693182,229.59455057384008L527.34941015625,267.0287201786127L527.6139413352272,237.09108312035116L528.0692818892045,263.00122482242887L528.30345703125,277.138365654127L528.9842995738636,293.84613661049383L529.7692199573863,308.80518928217043L530.012068252841,306.3751966777274L530.259253125,278.57432712452584L530.4153698863636,304.54589365474567L530.9444322443181,311.9046640429031L531.4257922585227,279.76846809584686L531.9114888494319,291.5412315571236L532.7961504971591,282.8195443179564L533.3208762784091,297.78567162909246L533.7892265625,316.1602497756966L534.1881916193182,314.17410402658516L534.8169952414773,306.9736047456439L535.0555069602273,301.2365756672487L535.610588778409,256.27081665050184L538.5377780539773,266.15129372269627L539.3183618607956,286.3007949757023L540.4892375710227,295.56636560961266L540.7711150568182,302.9528901636878L541.3088505681818,316.53241924108744L541.8292397727273,284.33178999222326L542.4537068181818,302.032663882953L543.1735785511364,303.8664983994854L543.6896311789773,287.14734354538274L544.6913803977272,304.46769150151346L545.1293746448864,313.0737297478529L546.4780499999999,302.9706014956958L546.8596687500001,287.3400940278725L547.3323556107955,295.2902842151854L547.5925502130681,281.6336583964666L548.0955931107954,277.8639573498154L548.3774705965909,289.7260213997116L548.5639433948865,305.94204523004L548.7243967329546,309.50382077596726L549.283815127841,304.24230644644587L550.2638814630682,317.36861387813855L551.0748213068182,305.892703067808L552.4148235085228,298.9000513860873L552.9829150568182,312.5108279084737L553.5987089488636,315.30293935510963L554.0150203125,311.9252611158696L555.064471875,298.23836184492154L555.1902325994319,303.75035392612483L555.3463493607954,311.31299590689105L555.6932754971591,293.8865159012208L556.0705576704545,302.0521529470283L556.5692639914772,315.53214173939216L556.7297173295455,313.3787920679235L557.02026796875,301.6063583377351L557.1893944602273,312.23691130777297L558.5163869318181,294.16369460284767L558.9977469460227,307.1313689008955L559.4704338068182,313.9084104332688L559.6829260653409,314.8722318907596L560.2727004971591,251.87311025261982L560.5025390625,286.21327710926596L561.9639654119318,252.1442486332659L562.115745596591,270.664729636121L562.4496620028409,295.7014593966056L563.1218313920455,305.6739841513186L563.7116058238637,305.84766225888427L563.993483309659,293.52820056005777L564.2623510653409,268.02048426463875L564.6699892755681,289.80454643723175L564.9128375710228,274.61741359327317L565.1036469460228,290.2121278243904L566.3829370738637,296.44283221946034L567.4063691761363,279.44957958928273L567.6578906249999,297.73846762938217L567.7836513494318,307.12199881412334L568.5815814630681,315.81222719989864L569.5139454545455,320.1565102579751L569.7871497869318,304.8370180155372L569.9692860085228,308.73077111396407L570.5503872869318,313.11518620820766L571.4393855113636,316.38454784972623L572.7273487926136,305.98389900936576L573.1176406960227,297.5403798771733L573.6813956676136,267.65503551678853L574.2234677556818,294.1226807720482L574.4966720880682,283.17277602476L574.9520126420455,246.16778638435676L575.1731780539773,257.72000538392825L575.7976450994319,231.9254180138348L576.0361568181818,218.70703074604498L576.8080674715909,255.06366053384673L580.194933877841,259.3615354964861L580.450791903409,274.0900133293705L580.5505331676136,267.94161685954555L580.6762938920455,272.868698720044L581.4959068892045,257.3251807712949L582.20710546875,269.0436809196136L583.0787573863636,281.11493236625563L583.3519617187501,298.4427515197061L583.5904734375,310.6452942030586L584.2539696732954,309.6682846150969L584.4751350852272,304.58372460616675L584.7786954545455,311.1960256326976L585.1386313210228,293.76830812864205L585.4638745738637,291.4177136932176L585.8151372869318,298.4034533211209L586.2357852272727,221.3041521375547L588.2826494318182,263.2205160537464L589.2323597301136,287.4039192962111L589.4535251420455,308.4389411906875L591.2445313210227,287.9334303558157L591.6261500710227,286.51207256438056L594.0502964488637,303.8128806955917L594.7007829545454,309.8017837707581L594.7441487215909,317.4566212477912L595.3035671164773,312.7869959701675L595.507386221591,301.1633725899206L596.2185848011363,314.29464817868154L596.7996860795454,308.32150860325385L597.1032464488636,320.09256416974L597.3157387073863,325.5491385693403L598.7771650568183,316.6555234214694L599.007003622159,322.7674577904362L599.2238324573864,327.34600734547485L599.4363247159091,324.30250953934024L600.1475232954546,323.44536777318376L600.4467470880682,257.24856011856116L600.6462296164773,280.3378598081381L600.8890779119318,257.87966092749303L601.1059067471591,270.8804517526857L602.43289921875,287.07722304698416L603.7989208806819,301.4535157110488L604.0114131392045,302.80953761495323L604.62720703125,307.59983929131727L605.9498629261363,304.4036959656138L606.53530078125,318.47798000264515L608.7859840909091,320.3850187211534L609.1892857244318,320.654676857549L609.8571185369318,304.9872709053505L610.1346594460227,299.53557669745373L610.5336245028409,272.62497789637143L610.6420389204545,299.953584031617L611.7175099431818,308.8048962511751L611.9733679687499,304.80721050251316L613.0488389914773,316.056304399662L613.3870919744319,317.74223267703815L615.130395809659,322.5643754999016L616.3446372869319,292.3602932810887L616.7782949573863,300.7541366410318L617.832083096591,312.936056446556L619.2631534090908,274.26875395269616L620.13046875,295.015126941749L620.6248384943182,306.3779296267918L621.5095001420455,315.1683714681203L621.9214749289772,325.0906659450135L622.1513134943182,283.3256621650458L623.0186288352272,274.4204423839808L623.1877553267045,237.52529151528836L623.5086620028409,274.1042784708128L623.7428371448864,295.0875354741446L624.2502166193182,308.94794971552085L624.9917712357955,315.62380154613606L625.5078238636364,321.90061933805913L626.2970808238637,323.2921441138409L626.6526801136364,308.85462867859735L626.9042015625,321.4636562594398L627.2728105823863,321.0687949972525L627.7671803267045,318.5000546823248L628.1487990767044,274.74355860056306L628.6691882812501,295.7711849540581L629.2242700994318,292.47385741055666L629.9484784090909,311.45283373612557L630.3604531960227,309.8948867584371L630.8201303267045,309.4949479499521L631.3578658380683,308.7623349904455L632.1601325284091,272.28706748959047L632.9233700284092,293.62513574169054L633.7559927556819,312.4812282872556L633.9901678977272,315.37088119699706L634.1809772727273,321.10991946288436L635.7811740767045,293.01027896063624L636.3709485085227,304.3510992172783L636.5314018465908,306.7666378047124L636.7352209517045,320.8141722009215L637.3726977272727,325.60160234127244L637.5288144886364,323.1266032549965L638.8644801136363,301.24451494772603L639.1420210227272,314.96925847863776L639.3588498579545,311.48626416406404L639.9442877130681,302.7873425572L640.7031886363636,310.73306558065906L640.8853248579546,316.33486655076325L641.3276556818182,320.008951060295L641.5618308238636,326.1396434469938L641.7829962357954,318.5888963797044L642.0648737215909,311.4315766726942L642.4985313920455,289.7470540902025L643.1056521306818,310.41279220885076L643.6867534090909,316.84171590987467L644.6364637073863,318.0640840577103L644.8619656960227,320.93057380598884L645.8853977982955,321.5864482431537L646.2236507812501,328.8031233614043L646.4231333096591,321.978529302201L646.6356255681818,326.30930264468276L647.3164681107954,330.17827508852054L647.9712911931819,332.23038007322054L648.1664371448863,329.46586329640803L649.0554353693182,310.8487257415167L649.2722642045454,319.42994423235126L649.6105171874999,284.5918892593662L649.7753071022727,298.29800963231804L650.1482526988636,287.34876806633997L651.3234649857955,303.3399318283637L651.6053424715909,310.1718473926687L651.9219125710227,315.9721013126078L652.0910390625,289.27743085725916L652.2601655539773,294.01870894732366L652.8239205255682,300.9997175949948L653.1925295454545,290.2015224706016L653.3443097301137,307.7745304889013L653.5394556818183,317.5497445068675L655.2957692471591,320.3662325025748L655.5299443892045,315.631279366085L656.05033359375,298.6972598653251L658.6045772727272,298.22149101622193L659.7104043323864,283.33214995698506L659.8535113636364,275.281238850572L661.0330602272728,269.6312249997963L661.2759085227273,289.8120067417448L661.3843229403409,296.77034122346794L661.7832879971592,312.4071720963654L662.0131265625,316.28720163857565L662.1258775568182,322.93059180114045L663.0365586647728,325.5946002121769L664.8015453835228,299.4588043043615L665.1051057528409,290.44355737862594L666.7096391335227,308.23369827686315L666.8917753551136,319.2109410096321L667.7460809659091,296.85631092364275L668.3705480113637,290.8791965125482L669.3072485795454,303.8772563683081L669.7322330965909,304.59551893157294L670.7469920454546,298.6234757571371L672.9759924715909,313.750727025804L673.9603953835227,316.21145434268544L674.0731463778409,321.6236406510367L675.1009150568182,325.4349594798859L675.2613683948863,279.3265889100538L675.6516602982954,302.2771315105144L676.3498491477272,310.07737651630543L677.2865497159091,317.70989881255804L677.811275497159,312.22862463175403L678.2926355113636,304.0988895474622L678.6482348011364,312.7090087162702L679.0688827414773,322.04061203165344L680.5346456676136,329.90066032089885L680.9075912642045,332.7468317596799L681.1114103693182,332.05630335501945L682.5121246448864,326.1332922893293L682.724616903409,294.2274320672468L682.9848115056818,309.3319175392697L683.3404107954545,314.83753937186657L683.9041657670455,321.1445241254679L686.1418393465909,325.41610731375886L686.4584094460228,321.3157340031425L688.4835907670455,319.3550669158435L689.5503886363637,321.75014085799074L690.4697428977273,313.9764806582309L690.7386106534091,314.9332598539458L690.9988052556818,313.8135578270117L691.8010719460227,316.84621031495095L692.0135642045454,303.9253349745998L692.2347296164772,280.42979972629126L692.4038561079545,290.60850732963314L693.2061227982955,299.9966316249432L693.2971909090909,309.81620219507585L694.3813350852273,314.50747632478937L694.6848954545454,307.7989203661398L695.4741524147728,317.0642826634476L696.0899463068182,303.38064628111294L696.3544774857954,310.5635542527853L696.4715650568181,314.5046172771465L697.0309834517045,293.667266931153L697.2478122869318,298.5109496033291L698.6528631392046,302.4636296699107L699.55487109375,303.88715371308683L700.1923478693182,307.8782768655894L700.9685950994318,320.83498917872174L702.0223832386364,308.34618559392965L702.1134513494318,320.3397048736374L702.4386946022728,321.2367227032638L702.9417375,325.0253914776359L704.7414168323863,305.54260553019725L704.9669188210227,310.50522067008905L705.4742982954546,317.1012714496761L705.8862730823863,323.0305100793546L707.711971875,317.9944494077507L707.8680886363636,310.42020177298446L708.1456295454545,314.5885017362455L708.5662774857954,314.23800099177475L711.2029161221591,323.1325250135858L711.5108130681818,328.1415351758599L711.9704901988637,329.9811409849047L712.4258307528409,328.4443611584973L713.5143115056818,330.0172235150857L713.7441500710228,334.359089763744L713.9392960227273,324.52841398226224L714.2862221590909,328.46560429994463L714.5854459517045,333.80256206371905L715.1535375000001,326.2216917430074L715.3356737215909,322.5038212212748L715.6088780539773,327.0001000537173L716.0728917613636,331.3402747853813L717.1787188210227,325.33077662850724L718.0330244318183,305.8631064752657L718.6141257102273,305.37049188971037L718.8699837357955,316.69332442736334L719.3079779829545,288.36121970448323L719.8934158380682,304.2802226605023L720.3574295454545,305.3325843967203L720.83011640625,318.90292718155405L721.4719297585227,308.94643596496115L722.26118671875,322.13412880114277L722.4996984375,326.60496097035144L722.9810584517046,324.9378434015926L723.4363990056818,310.6282325025568L723.6098620738636,321.28732655263957L725.1883759943182,320.32574779282226L725.3358196022727,326.931723451556L725.8171796164772,314.1988325810082L727.0574405539774,324.013559260705L727.9767948153409,330.16547565683055L728.1329115767045,316.9668186725636L728.2630088778409,314.40309168228265L728.7920712357956,323.7584199507759L728.9134953835227,322.3681785583332L729.4425577414772,320.29529920934647L730.0540150568181,315.0217548234404L730.7391941761364,314.93359630841854L730.8779646306818,317.7548646184137L731.7452799715909,322.64429557039324L732.9812043323864,301.6124471408962L733.5623056107954,284.93138179676765L734.8025665482954,307.11945015190264L734.9716930397727,315.09705775975124L735.0714343039773,324.20218952595553L735.3446386363636,303.80945980608084L735.6048332386364,315.35894989704855L736.2900123579545,321.51625167868L736.7887186789773,294.28779735291874L737.478234375,287.88323429897355L737.6950632102273,265.11721765801263L738.4973299005682,288.6056877541837L739.0133825284091,298.7311111431299L739.4730596590908,299.45526598340143L739.6551958806818,307.0273168411605L739.854678409091,312.27891556780054L740.6049061789773,308.76835271334954L741.6933869318182,312.29703638920967L741.8711865767045,282.6704155562507L742.0012838778409,298.62847783316295L743.1331303977272,310.992884994442L743.3803152698863,321.4380790328352L743.6968853693181,326.8374563446861L743.9267239346591,325.7899437481893L744.2779866477273,320.32196166126323L744.5511909801137,303.6213700414204L744.7073077414773,296.8047953629794L745.0065315340909,299.5309676041783L745.2146872159091,312.6292932337869L745.4835549715909,320.4103062007635L745.8608371448864,318.0744043680316L746.5590259943182,320.24567794157775L747.1184443892046,325.7864180854184L747.4089950284091,308.43069939918655L748.6492559659091,313.4711998171052L748.9788357954545,316.9015674392248L749.1132696732955,292.5635126709857L749.9675752840909,311.57643938391914L750.3578671875,318.2146671195597L750.8695832386363,309.7440350043637L751.8236301136363,314.7441381328024L753.5365779119318,323.1556721665095L754.2998154119318,302.80691023693265L754.6901073153409,313.0103992106067L755.1888136363636,313.74122916946095L755.3709498579545,319.53415203862954L755.8739927556818,328.14600202902295L756.2729578125,303.6945152608403L756.7673275568181,311.77801594304134L756.9884929687499,312.3559322188323L757.1185902698863,321.9565968918816L757.7820865056818,319.55474551963897L758.0292713778409,312.4351493027693L758.7794991477273,323.442155656629L758.9659719460228,323.20160276139563L759.6771705255682,321.8071904089736L760.2712815340909,328.40243583957476L761.2253284090909,327.43831949257924L762.8341983664773,330.5322002996449L762.9382762073864,327.25374188002615L763.6017724431819,319.305401790003L763.8706401988636,327.4345719771743L764.3086344460227,325.58365208847283L764.8376968039773,290.70548686351157L765.0154964488636,292.24072328189476L765.3667591619319,311.5955976350872L765.5835879971592,319.1996408345561L765.9435238636364,316.03705245508314L766.1776990056819,297.6411733046387L766.5202885653408,294.2679928669461L766.7154345170454,309.26896560961774L767.1577653409091,311.67500097021326L767.5480572443182,315.73704284706633L767.7171837357954,314.4957577245171L768.6061819602273,314.90277846197694L768.9487715198863,322.2941214832092L769.2349855823863,326.71508648648404L769.6729798295454,301.9747408071431L770.0589351562501,316.8379440033002L770.6270267045454,317.8958314552047L772.0754433238636,325.07311875189174L773.6149280539772,326.8914918694784L774.5993309659091,328.59397624694645L775.1327299005682,326.298225562354L776.3729908380682,320.36398086582426L776.8586874289772,325.48473856231453L777.5872323153409,331.0168070920162L778.8058103693182,331.64981475638467L778.8882053267046,330.8948259542413L779.2611509232954,331.5656654351966L779.8552619318182,333.9498581000576L780.5014118607954,332.0985284571892L780.7269138494319,314.50372113734755L780.9307329545455,302.18847790926856L782.8778558948864,285.51934427958827L783.0990213068181,270.7488264974481L783.3462061789772,290.61908212521826L783.5066595170454,299.0707768751333L783.8535856534091,312.9375518681496L784.3522919744318,315.58302024137316L785.2412901988636,323.19754748720726L785.5752066051136,325.96493016886L786.4121659090908,323.34237273459L786.9976037642045,327.9518851067088L787.2621349431818,323.19352255019317L787.5396758522727,311.50433407874567L787.7348218039773,324.217702499936L789.6255692471591,330.8381252419412L791.8198770596591,304.3054275591051L792.2318518465909,301.1109201359079L793.1165134943182,307.95237084909235L794.4955448863636,319.5183670978782L795.2978115767045,303.1277928746365L795.618718252841,310.7758871732129L796.3125705255682,305.3719316850885L797.3099831676136,318.37962976877594L797.8607284090909,320.7228982972187L798.2423471590909,322.57116292280455L798.6933511363636,315.1437911174446L799.3655205255682,298.6231811035722L799.9032560369319,310.37656804257927L799.9422852272727,316.9846805175203L800.1677872159091,318.4103893005883L800.6187911931818,325.5568442621252L802.1929685369319,323.6154887126935L802.5572409801136,308.5441038159759L803.107986221591,320.07689516831823L803.5242975852273,300.9163926427924L804.6778269886364,313.3391407332041L805.5928446732954,305.734001422001L806.6899985795455,318.6044080222088L807.5746602272727,323.9824490913414L807.8652108664774,331.4359883289732L808.1080591619318,335.66468232996453L808.9450184659091,333.2203075356912L809.6345341619318,333.2172139744539L810.1462502130681,310.1158985770094L811.3344722301136,311.6566266105382L811.7941493607955,323.1067179254179L812.13240234375,317.39975892373826L812.8175814630681,320.6657992891604L813.0083908380682,306.20332058025207L813.173180752841,316.8647279605437L813.4290387784091,321.67686387688923L814.1142178977273,324.3021929072798L814.4828269176137,329.7448683087504L815.1680060369318,333.22607800391177L815.7144147017045,334.70234594957145L815.9095606534091,306.17993744740556L816.2694965198864,318.633480248032L816.6988176136364,325.3651733977664L818.1819268465908,306.366847514097L818.8671059659091,310.92413296042923L819.2920904829546,319.3954179837647L819.7430944602273,303.03005208696976L819.9816061789772,318.5795475967291L820.202771590909,326.2871127502658L820.519341690341,332.79372406760086L821.2739060369319,332.22036768352524L821.7465928977273,334.40259305450644L822.4447817471591,337.27420991547893L822.8133907670455,327.3784978561878L823.6330037642045,328.47632222314354L823.7977936789772,327.1444064673166L824.0666614346591,285.5658772883642L826.2999984375,304.950925648083L826.5255004261364,309.10162568680624L826.7813584517046,295.0084397351276L827.024206747159,309.108314863177L827.2844013494318,300.02130429228055L827.4318449573864,310.3242293434138L828.2991602982954,318.2853591672656L828.6460864346591,307.84734543753126L829.0970904119318,304.6042008912114L829.8039524147727,301.83098387214824L830.2072540482955,306.6758199542361L830.6235654119318,320.92130315808043L831.0008475852273,326.541415718243L833.2298480113636,309.9601879042658L833.3903013494318,306.07035252584654L834.0841536221591,317.41911280234837L834.36169453125,326.01662713337055L834.8257082386364,331.24408827750744L835.3504340198864,333.8431557478241L835.7493990767045,336.2043247617323L836.0356131392045,332.8258116362714L836.6167144176137,329.1837372492685L838.0000823863636,330.6985460258087L838.1431894176136,335.9105193569696L839.0712168323864,328.74674768176294L839.9211858664772,332.44395502165924L840.7711549005681,324.39396226260646L841.1180810369318,326.58343366297237L841.3349098721591,321.2873225421438L842.0287621448864,329.94000468169025L842.8483751420455,333.12494096466526L843.3037156960227,330.6888937908925L843.568246875,331.4841570650648L843.7720659801137,329.189774715609L844.0496068892046,326.299355979983L844.2707723011364,331.0076685853147L844.8215175426136,331.92843707247636L845.8449496448864,308.8054660787825L846.1311637073863,319.162692548671L847.0678642755682,321.1998851846687L847.2326541903409,321.66210961049984L847.6186095170455,322.43595030132644L847.7964091619318,321.19825302495786L849.0540164062501,327.1023583318843L849.7175126420454,314.9845378462108L849.9256683238636,315.16638660810185L850.2812676136364,320.4237437330591L850.7539544744319,326.14010139005825L851.0835343039773,330.56966501890093L851.3784215198863,315.74626249324365L851.963859375,323.2720940962498L852.2197174005681,325.72747527689125L852.3888438920454,313.25391287285316L852.4929217329545,313.515176932086L852.9916280539774,322.33259858493176L853.34722734375,321.3065061199913L853.6160950994317,323.9161235349327L854.6612100852273,331.24074932676257L855.1512432528409,333.63270103181424L855.8884612926137,321.6758489682974L856.0836072443182,311.8326848313034L856.9292397017045,313.9498959639562L858.3082710937499,317.9868098413284L858.8980455255681,324.8709915885529L859.7263316761364,322.2766234284163L861.0836801846591,330.3504858541799L861.8729371448864,325.52502520849185L862.1851706676136,330.5817374436252L863.3040074573864,314.22673273373795L863.7680211647727,322.17517325454446L863.9805134232954,330.4693122725099L864.2710640625,327.6384465229755L864.8391556107955,324.80127558304343L865.9102900568181,326.91628806110305L866.1054360085227,312.64130034635116L866.7992882812499,322.8260299747565L867.2719751420456,329.3925890109169" style="fill: none;" fill="none"></path></g></g></g></g><g opacity="0.2"><g><g><g><path stroke="rgb(238, 51, 119)" stroke-width="2px" d="M52.01290099431818,178.12291133403778L52.87154318181818,347.87371516239364L57.8716161221591,347.8265032924246L60.881200355113634,-330.5264778137207L61.76152542613636,347.5430340000894L64.92722642045455,177.82921600341797L66.32360411931818,178.5769455432892L69.28982258522727,347.5442155143246L76.84847578125,347.7479664575076L90.14875653409092,181.40308248996735L91.26325674715909,347.73623429832514L92.11322578125,347.4527037476655L93.00222400568182,181.4586721658707L93.48792059659091,347.572032566648L94.55905504261364,180.9292565584183L98.73084183238636,347.8256495583337L99.32061626420455,347.53458804870024L99.77162024147728,347.4460449728649L100.63893558238637,347.60426764562726L101.59298245738637,183.30111730098724L104.23395767045454,180.10811614990237L104.93214651988636,347.1069183149375L105.67803771306818,347.8352917097509L106.28949502840909,183.01257300376895L107.83331633522727,182.7472083568573L108.10652066761364,347.132826551795L108.33202265625,347.4484593172092L108.63558302556818,180.1698594093323L111.29390454545455,346.97928891703486L113.85682137784092,183.68908691406253L115.90802215909092,184.4054262638092L116.70595227272727,181.93643915653232L119.52472713068182,346.92406817525625L123.05036399147727,185.26274490356445L125.07120873579545,184.47270083427432L125.44415433238635,346.34337612614036L129.0912153409091,347.31012073531747L130.7738071022727,347.5646236347966L131.68448821022727,347.40940101630986L135.3055297585227,346.97427920484915L135.88229446022729,189.7327183485031L137.5648862215909,347.46243006386794L138.21103615056816,187.4657796621323L141.67162436079545,187.92359936237338L142.71673934659088,188.09531199932098L143.26748458806819,188.56281149387362L143.58839126420455,189.5510839223862L144.75926697443182,186.1622052192688L149.17823863636363,346.40382447000593L153.73164417613637,346.2957254210487L154.40815014204546,188.27293622493747L154.6119692471591,188.77282845973969L157.43508068181816,192.02259469032288L162.32673920454545,346.0482769012451L162.8731478693182,30.314612865447994L164.87664630681817,190.50554621219635L170.32338664772726,346.5249665286392L170.70934197443182,347.7231383016333L173.66688728693182,186.60706090927124L174.39976875,347.1085829073563L174.86378245738635,192.29979979991913L175.51426896306816,347.1670988709666L176.76753963068182,344.9069551490247L177.5567965909091,343.56387450546026L178.05116633522726,345.01202548108995L181.00003849431818,195.37519145011905L186.4988177556818,193.40429890155792L187.29674786931818,344.6920323856175L187.68270319602271,346.9665050525218L189.54309460227273,346.48949902225286L197.99074602272728,342.28488846868277L199.50854786931816,346.1606146413833L202.77832670454544,347.2977332184091L209.2615088778409,198.54038047790527L210.4714137784091,192.87019896507263L211.9241669744318,346.5833796579391L212.96928196022728,346.68656183592975L215.84009573863636,346.59261124860495L220.77945660511364,347.06941876746714L223.41175866477275,203.6149780750275L224.87318501420452,346.4663455700502L225.65376882102274,344.7858134955168L226.2608895596591,207.026500582695L227.13254147727272,201.47135305404666L228.14296384943182,346.1209540879354L230.12911598011362,193.84666550159457L231.33034772727274,345.4127011746168L232.67034992897726,344.32902956567705L237.04161924715908,186.85147571563724L237.44492088068182,346.4079431090504L239.0451176846591,216.2889488339424L239.26628309659088,345.7829551976174L241.1917231534091,208.55019527673724L241.5516590198864,206.75913083553314L243.6288792613636,343.5618488788605L244.22299026988634,208.8483588695526L245.05994957386363,346.7366319494322L246.68182926136365,199.00518345832825L248.9238394176136,345.074670009315L249.3184678977273,346.93719227751717L249.49626754261362,212.64927703142166L251.73827769886364,218.90324521064758L251.88572130681817,346.94742999691516L252.3540715909091,209.973332464695L253.7851419034091,73.94070255756378L258.83291718749996,340.61299785226583L259.3836624289773,346.75187614001334L261.2006880681818,343.9772654622793L261.98994502840907,346.0402982281521L264.9474903409091,197.41825032234195L265.2510507102273,211.96068930625918L266.5910529119318,225.14574456214908L267.45403167613637,346.5058743227273L268.8113801846591,194.3935220241547L270.26846995738634,341.8134317100048L271.521740625,344.21150298044086L272.7186357954546,94.16120517253877L272.91378174715913,224.49010270833972L273.3561125710227,329.4531295001507L274.0412916903409,211.57731759548187L275.5287375,345.74876788724214L275.98841463068186,345.9664722410962L278.59036065340905,217.94830757379532L278.74214083806817,217.45258975028995L279.07172066761365,-34.8447151184082L285.1559377840909,346.3203274663538L288.8246816761364,-15.369038105010974L289.457821875,214.44601970911026L291.56106157670456,345.27075984701514L292.6148497159091,232.93977665901184L293.82041803977273,236.3308851718903L295.5854047585227,345.4429062381387L297.67563473011364,237.00576561689377L302.90554623579544,344.4023294299841L304.3192702414773,210.9933926463127L304.5534453835227,203.95813542604446L305.5985603693182,342.7119780629873L307.012284375,107.55686509609224L309.8830981534091,241.8778740167618L310.6506722301136,215.43384271860123L312.1988301136364,339.68834522366524L312.92303842329545,120.0495903491974L313.69928565340905,201.4539294242859L313.8250463778409,220.5816524028778L315.2387703835227,1.2983922958373797L315.4425894886364,221.9113450050354L320.81560802556817,236.64098429679873L321.61787471590907,92.56327855587008L322.1642833806818,45.15705633163449L322.5285558238636,-10.388507366180427L323.2527641335227,219.63790702819824L324.0897234375,331.3046753704548L327.91892066761363,345.18186346814036L329.7402828835227,323.4344667494297L330.20863316761364,142.6615034341812L331.0889582386364,340.174649015069L331.46624041193184,124.0956406593323L334.32838103693183,246.79125118255615L334.90514573863635,223.5319672822952L336.6657958806818,323.1679936796427L337.79330582386365,325.3295608907938L338.3613973721591,238.19810885190967L339.58864857954546,82.08925712108612L339.8228237215909,-117.2881109714508L340.46897365056816,227.74622130393982L341.2322111505682,344.36134155094624L342.6372620028409,127.9134033918381L342.81506164772725,343.6320841051638L343.82548401988635,237.80455607175827L344.7231553977273,113.78216552734376L346.4968152698864,345.1641621924937L347.22536015625,339.6717982850969L348.3918992897727,319.33652582764626L348.6347475852273,168.88652074337008L348.8429032670455,243.18746376037598L350.1265299715909,247.63515639305118L351.54025397727276,345.52238804474473L351.7007073153409,258.3396952152252L352.66342734374996,46.044036626815775L353.26187492897725,325.4868640303612L353.4830403409091,148.2482831478119L353.7432349431818,192.10006761550906L354.7796767755682,-87.86302280426024L355.0355348011364,128.61975181102756L355.5212313920455,55.779697179794276L355.9982548295455,340.5667779147625L356.26712258522724,336.30567952245474L357.8066073153409,343.5308994650841L358.1145042613636,256.2190078496933L359.23334105113634,338.26758909225464L360.17871477272723,336.1069952622056L360.56467009943185,247.1209605336189L362.10415482954545,333.4009298980236L362.58551484375,161.04217100143433L364.22907741477275,214.64857804775238L365.3262313210227,210.13960021734238L365.63412826704547,339.9181123189628L366.1545174715909,148.61628818511966L368.8952339488636,331.0181675031781L371.07653203125,246.6720860004425L371.4754970880682,221.51470679044724L372.2474077414773,339.7142754048109L372.63769964488637,229.09619826078418L372.7894798295455,261.1380891799927L372.90223082386365,344.9668170064688L373.4226200284091,230.23967581987384L374.3376377130682,265.51978635787964L375.36974296875,334.328442171216L375.91181505681817,239.75881147384644L376.89188139204543,242.6910199522972L378.1755080965909,328.18430076539516L379.9101387784091,37.856693744659395L380.72541519886363,341.2686321437359L381.1287168323864,147.32040572166443L381.6014036931818,323.29536075890064L381.9786858664773,254.04070842266083L382.1521489346591,336.48326593637466L382.68554786931816,345.4778688233346L383.19292734375,163.1868158578873L383.67428735795454,313.78710839152336L384.68904630681817,50.00327992439268L384.89720198863637,181.22022080421448L385.18341605113636,328.8873887360096L385.3785620028409,256.16607147455215L385.7515075994318,339.9153353199363L386.2718968039773,342.1551581583917L386.6188229403409,160.71305799484253L389.29449076704543,335.6106983795762L390.12711349431817,316.2647727429867L390.47837620738636,216.27899247407916L390.9987654119318,326.7913653999567L392.1392850852273,223.7855087518692L392.77676186079543,207.71915036439896L393.4792872869318,274.9756230711937L394.4463438920455,238.5463480949402L395.67359509943185,338.8310006558895L396.49754467329547,298.1735958456993L396.9702315340909,243.97457796335217L397.29113821022725,282.11521464586264L397.4472549715909,320.5551687180996L398.9520470880682,337.29929852485657L400.53923416193186,333.6328711658716L400.9902381392045,222.92218345403674L401.1550280539772,341.3752243965864L401.48460788352276,280.2664646804333L402.0310165482955,219.66673898696897L402.79859062500003,326.8385219871998L403.08914126420456,344.5480022318661L403.86538849431815,115.96112179756165L404.1646122869318,343.12679452076554L404.3814411221591,269.2487542629242L404.9278497869318,141.74553561210635L405.37885376420456,275.91069984436035L406.5800855113636,241.37353080511096L407.5037763494318,164.90679430961612L407.6729028409091,321.87938618659973L409.1950412642045,263.8290719985962L409.5896697443182,175.47697412967682L409.9626153409091,60.05958366394042L410.64345788352273,179.9813108444214L411.08145213068184,276.1649845838547L413.1369894886364,248.69902628660202L414.1647581676136,161.33851099014282L414.5160208806818,318.45322731137276L415.0450832386363,343.7803894113749L415.65654055397727,221.54292511940005L416.43712436079545,114.11158967018129L416.8187431107954,338.2186045795679L417.10929375,344.44638005644083L417.3564786221591,274.5456846356392L417.6860584517045,278.86376309394836L418.37557414772726,160.94279754161835L418.78321235795454,287.75584253668785L419.34263075284093,262.8764419555664L420.2142826704545,344.06409543193877L420.6305940340909,133.80622017383578L420.8951252130682,299.13370180130005L421.15098323863634,181.1515634059906L422.65577535511363,257.89396661520004L422.9159699573864,211.87956053018573L423.49707123579543,260.78424948453903L424.39474261363637,210.9160839319229L425.26639453125,333.9214262664318L425.85616896306817,103.57340502738955L426.9880154829545,206.99837732315066L427.2005077414773,331.7044843658805L427.92037947443185,296.7025263905525L428.47112471590907,259.06615513563156L429.08691860795454,341.1226509064436L430.1146872869318,323.4321699589491L430.9516465909091,273.9938845038414L431.6541720170454,153.74830770492554L433.1589641335228,274.4524561166764L434.8458924715909,259.5126270055771L435.68285177556817,180.11921334266665L436.7496496448864,248.20935833454135L437.4478384943182,294.11231714487076L437.6169649857955,331.8387645035982L438.80952357954544,317.4851614534855L439.4253174715909,249.71546518802643L439.63780973011364,123.55616497993469L440.24059389204547,286.9056843519211L440.87373409090907,197.29554164409637L441.45917194602276,327.3710792064667L442.4002090909091,253.92360019683838L443.02901271306814,336.7146583944559L443.14176370738636,337.9230046197772L443.6838357954545,335.21973516047L444.84170177556814,271.62166076898575L446.0125774857955,331.5484938323498L447.93801754261364,269.45628213882446L448.35866548295456,275.27637082338333L448.8356889204546,264.1323606967926L449.08287379261367,341.22611613199115L449.49918515625,241.49519371986392L449.62060930397723,130.0627844333649L450.4011931107955,138.6910765171051L450.87387997159095,232.7394567728043L451.02999673295454,240.54519104957583L452.1965358664773,332.1921807080507L452.5434620028409,249.64163082838058L452.9771196732954,237.38230097293857L453.21129481534086,318.4798834770918L453.7360205965909,291.64182621240616L454.90255973011364,197.30466830730438L455.25815901988636,309.2330201268196L456.1601669744318,221.69938343763351L458.1029533380682,300.67270267009735L459.1827609375,190.48136401176453L460.9694305397727,308.0459186732769L461.17324964488637,186.78223061561584L461.4074247869318,168.32080590724948L461.8150629971591,331.72496642172337L462.3137693181818,245.6720768213272L462.46554950284093,154.0065680742264L463.0119581676136,283.5512250959874L463.3241916903409,277.93748888373375L463.8185614346591,188.73575139045715L464.26089225852274,305.30486020445824L464.52108686079544,276.223434984684L465.49681661931817,280.0858673751355L465.6442602272727,286.8664120435715L466.7847799005682,288.9448064863682L467.0926768465909,262.0449649095535L467.3008325284091,287.4019293785095L467.51332478693183,262.0281981229782L468.6408347301136,303.66610991954803L468.84465383522723,121.87182891368866L469.34336015625,269.6131553053856L470.9522301136364,296.5229186713696L471.27313678977276,237.93600249290466L473.6235613636363,220.44592785835266L474.52556931818185,340.2988804243505L475.10233401988637,329.45634457468987L476.11709296875,344.45253309980035L476.4076436079545,307.40522864460945L477.3139881392046,222.21083092689514L477.47010490056823,249.6096788644791L477.9124357244318,322.74520921707153L478.13360113636367,319.4770643413067L478.4718541193182,329.7671178281307L478.84479971590906,305.10049986839294L479.8161928977273,258.4286715388298L482.32707080965906,179.77286684513092L482.89082578125,262.06239718198776L483.1857129971591,307.80801180005074L483.84487265625,325.58614890277386L484.1917987926136,125.74227738380432L484.7859098011363,255.04695761203766L485.3626745028409,296.9914509654045L485.62720568181817,146.73992919921878L485.90908316761363,322.44510102272034L487.2751048295454,200.5443398952484L488.8406090198863,244.19460314512253L489.01407208806825,301.1521765887737L489.7642998579546,167.0881705284119L490.24999644886367,327.39116910099983L491.7504519886363,307.172775298357L491.8632029829546,197.28663969039917L492.3835921875,278.1289068162441L492.9126545454546,287.614340364933L493.9274134943182,338.1618178933859L494.79039225852273,271.1295296549797L495.5015908380681,334.68259624391794L497.058421875,241.560731112957L497.34463593749996,165.6190024614334L497.55712819602275,219.55701160430908L499.93357223011367,114.22805833816531L500.10269872159085,217.61071610450745L501.8720220170455,314.2936057895422L503.60665269886357,315.26972229778767L503.81047180397724,271.3345252275467L504.19209055397727,325.74423852562904L506.86775838068183,175.7267646789551L507.6440056107955,258.46711415052414L508.5460135653409,139.05097472667694L509.88167919034095,329.60774044692516L510.21993217329543,275.18432635068893L510.37171235795455,282.9224057793617L511.43851022727273,315.8874336183071L511.8071192471591,203.57019174098969L512.2364403409091,338.4598496854305L512.5183178267046,327.8173522949219L512.791522159091,327.07826110720634L513.5634328125,336.34907438606024L513.7499056107955,294.2422727048397L516.8939237215909,256.8379442691803L517.6831806818182,329.70323118567467L517.8046048295455,148.57791471481326L518.5244765625,321.7567725777626L518.7846711647727,325.18760281801224L519.1446070312501,311.3182595670223L519.7257083096591,280.9661798477173L519.9338639914772,122.41201329231265L520.2287512073864,64.42524003982543L525.9703787642045,232.63581383228305L526.9374353693182,289.77656441926956L527.34941015625,323.17997458577156L527.6139413352272,192.184627532959L528.0692818892045,301.8664373755455L528.30345703125,298.3440769016743L528.9842995738636,318.90779304504395L529.7692199573863,331.24376828968525L530.012068252841,302.73020777106285L530.259253125,236.8730227947235L530.4153698863636,343.5032434500754L530.9444322443181,322.94281962513924L531.4257922585227,231.56417417526248L531.9114888494319,309.2003767490387L532.7961504971591,269.7370134592056L533.3208762784091,320.2348625957966L533.7892265625,343.72211699560285L534.1881916193182,311.19488540291786L534.8169952414773,296.1728558242321L535.0555069602273,292.6310320496559L535.610588778409,188.8221781253815L538.5377780539773,280.972009330988L539.3183618607956,316.52504685521126L540.4892375710227,309.4647215604782L540.7711150568182,314.03267699480057L541.3088505681818,336.9017128571868L541.8292397727273,236.03084611892703L542.4537068181818,328.58397471904755L543.1735785511364,306.617250174284L543.6896311789773,262.0686112642288L544.6913803977272,330.4482134357095L545.1293746448864,325.982787117362L546.4780499999999,287.81590911746025L546.8596687500001,263.89433282613754L547.3323556107955,307.2155694961548L547.5925502130681,261.14871966838837L548.0955931107954,272.2094057798386L548.3774705965909,307.51911747455597L548.5639433948865,330.26608097553253L548.7243967329546,314.84648409485817L549.283815127841,296.3500349521637L550.2638814630682,337.0580750256777L551.0748213068182,288.6788368523121L552.4148235085228,288.4110738635064L552.9829150568182,332.9269926920533L553.5987089488636,319.4911065250635L554.0150203125,306.8587437570095L555.064471875,277.70801293849945L555.1902325994319,312.01834204792976L555.3463493607954,322.6569588780403L555.6932754971591,267.74679589271545L556.0705576704545,314.30060851573944L556.5692639914772,335.752124927938L556.7297173295455,310.14876756072044L557.02026796875,283.9477077424526L557.1893944602273,328.1827407628298L558.5163869318181,267.05386954545975L558.9977469460227,326.58288034796715L559.4704338068182,324.0739727318287L559.6829260653409,316.31796407699585L560.2727004971591,157.37442779541018L560.5025390625,337.72352739423513L561.9639654119318,201.04070591926578L562.115745596591,298.44545114040375L562.4496620028409,333.25655403733253L563.1218313920455,320.63277128338814L563.7116058238637,306.1081794202328L563.993483309659,275.04900801181793L564.2623510653409,229.75890982151034L564.6699892755681,322.4806396961212L564.9128375710228,251.83671432733533L565.1036469460228,313.6041991710663L566.3829370738637,305.7888888120651L567.4063691761363,253.95970064401627L567.6578906249999,325.1717996895313L567.7836513494318,321.19729559123516L568.5815814630681,328.8475697785616L569.5139454545455,326.6729348450899L569.7871497869318,281.85777965188026L569.9692860085228,314.5714007616043L570.5503872869318,319.69180884957314L571.4393855113636,321.2885903120041L572.7273487926136,290.3829257488251L573.1176406960227,284.87510117888456L573.6813956676136,222.82701897621158L574.2234677556818,333.82414865493774L574.4966720880682,266.74791890382767L574.9520126420455,190.66030192375186L575.1731780539773,275.0483338832855L575.7976450994319,193.23353695869446L576.0361568181818,198.87944984436038L576.8080674715909,309.59860521554947L580.194933877841,265.80834794044495L580.450791903409,296.1827300786972L580.5505331676136,258.7190221548081L580.6762938920455,280.2593215107918L581.4959068892045,234.00990384817123L582.20710546875,286.6214311420918L583.0787573863636,299.22180953621864L583.3519617187501,324.43448024988174L583.5904734375,328.9491082280874L584.2539696732954,308.2027702331543L584.4751350852272,296.95688459277153L584.7786954545455,321.11447717249393L585.1386313210228,267.62673187255865L585.4638745738637,287.891822040081L585.8151372869318,308.8820627629757L586.2357852272727,105.65520036220553L588.2826494318182,326.09506192803383L589.2323597301136,323.6790241599083L589.4535251420455,339.99147403240204L591.2445313210227,257.175164103508L591.6261500710227,284.3800358772278L594.0502964488637,329.76409289240837L594.7007829545454,318.78513838350773L594.7441487215909,328.93887746334076L595.3035671164773,305.7825580537319L595.507386221591,283.7279375195503L596.2185848011363,333.9915615618229L596.7996860795454,299.3617992401123L597.1032464488636,337.74914751946926L597.3157387073863,333.73400016874075L598.7771650568183,303.3151006996632L599.007003622159,331.9353593438864L599.2238324573864,334.2138316780329L599.4363247159091,319.7372628301382L600.1475232954546,322.15965512394905L600.4467470880682,157.9533486366272L600.6462296164773,314.97180934250355L600.8890779119318,224.19236260652545L601.1059067471591,290.3816379904747L602.43289921875,311.37237998843193L603.7989208806819,323.0179547071457L604.0114131392045,304.84357047080994L604.62720703125,314.7852918058634L605.9498629261363,299.6094809770584L606.53530078125,339.58940605819225L608.7859840909091,323.24557679891586L609.1892857244318,321.0591640621424L609.8571185369318,281.4861619770527L610.1346594460227,291.3580353856087L610.5336245028409,232.25907969474792L610.6420389204545,340.9464932344854L611.7175099431818,322.08186458051205L611.9733679687499,298.8106818795204L613.0488389914773,332.92994524538517L613.3870919744319,320.27112509310246L615.130395809659,329.79758973419666L616.3446372869319,247.05416995286944L616.7782949573863,313.34490168094635L617.832083096591,331.2089361548424L619.2631534090908,216.26780021190646L620.13046875,326.13468642532825L620.6248384943182,323.422133654356L621.5095001420455,328.35403423011303L621.9214749289772,339.9741076603532L622.1513134943182,220.67815649509427L623.0186288352272,261.06261271238327L623.1877553267045,182.18256521224976L623.5086620028409,328.97275890409946L623.7428371448864,326.5624209791422L624.2502166193182,329.7385710775852L624.9917712357955,325.63757929205894L625.5078238636364,331.31584602594376L626.2970808238637,325.3794312775135L626.6526801136364,287.19835552573204L626.9042015625,340.37719763070345L627.2728105823863,320.4765031039715L627.7671803267045,314.6469442099333L628.1487990767044,209.10881447792053L628.6691882812501,327.3126244843006L629.2242700994318,287.5278660953045L629.9484784090909,339.92129822447896L630.3604531960227,307.55796629190445L630.8201303267045,308.8950397372246L631.3578658380683,307.6634155511856L632.1601325284091,217.57416623830795L632.9233700284092,325.6322381198406L633.7559927556819,340.7653671056032L633.9901678977272,319.70536056160927L634.1809772727273,329.7184768617153L635.7811740767045,250.86081820726397L636.3709485085227,321.3623296022415L636.5314018465908,310.3899456858635L636.7352209517045,341.88547379523516L637.3726977272727,332.7827475517988L637.5288144886364,319.4141046255827L638.8644801136363,268.4213824868202L639.1420210227272,335.55637377500534L639.3588498579545,306.2617726922035L639.9442877130681,289.738960146904L640.7031886363636,322.6516501158476L640.8853248579546,324.73756800591946L641.3276556818182,325.5200778245926L641.5618308238636,335.3356820270419L641.7829962357954,307.26277577877045L642.0648737215909,300.6955971121788L642.4985313920455,257.22027021646505L643.1056521306818,341.4113993868232L643.6867534090909,326.4851014614105L644.6364637073863,319.89763627946377L644.8619656960227,325.2303084284067L645.8853977982955,322.570259898901L646.2236507812501,339.6281360387802L646.4231333096591,311.7416382133961L646.6356255681818,332.8054626584053L647.3164681107954,335.98173375427723L647.9712911931819,335.30853755027056L648.1664371448863,325.31908813118935L649.0554353693182,282.9230194091797L649.2722642045454,332.30177196860313L649.6105171874999,232.3348067998886L649.7753071022727,318.85719019174576L650.1482526988636,270.92490571737295L651.3234649857955,327.3266774713993L651.6053424715909,320.4197207391262L651.9219125710227,324.6724821925163L652.0910390625,249.23542517423633L652.2601655539773,301.13062608242035L652.8239205255682,311.4712305665016L653.1925295454545,274.00422978401184L653.3443097301137,334.13404251635075L653.5394556818183,332.2125655338168L655.2957692471591,324.5909644961357L655.5299443892045,308.52884966135025L656.05033359375,273.29623061418533L658.6045772727272,297.50783774256706L659.7104043323864,260.9981383681298L659.8535113636364,263.2048721909523L661.0330602272728,261.1562042236328L661.2759085227273,320.08317935466766L661.3843229403409,307.20784294605255L661.7832879971592,335.86241840571165L662.0131265625,322.10724595189095L662.1258775568182,332.8956770449877L663.0365586647728,329.59061282873154L664.8015453835228,260.2551104426384L665.1051057528409,276.92068699002266L666.7096391335227,334.91890962421894L666.8917753551136,335.67680510878563L667.7460809659091,263.32436579465866L668.3705480113637,281.91352489590645L669.3072485795454,323.374346151948L669.7322330965909,305.6729127764702L670.7469920454546,289.6654109954834L672.9759924715909,336.4416039288044L673.9603953835227,319.90254531800747L674.0731463778409,329.74192011356354L675.1009150568182,331.1519377231598L675.2613683948863,210.16403305530548L675.6516602982954,336.7029454112053L676.3498491477272,321.777744024992L677.2865497159091,329.158682256937L677.811275497159,304.006713360548L678.2926355113636,291.9042869210243L678.6482348011364,325.6241874694824L679.0688827414773,336.0380170047283L680.5346456676136,341.69073275476694L680.9075912642045,337.01608891785145L681.1114103693182,331.02051074802876L682.5121246448864,317.248775690794L682.724616903409,246.36864173412323L682.9848115056818,331.98864574730396L683.3404107954545,323.09597212076187L683.9041657670455,330.60500125586987L686.1418393465909,331.8234820961952L686.4584094460228,315.1651740372181L688.4835907670455,316.41406628489494L689.5503886363637,325.3427517712116L690.4697428977273,302.3159903585911L690.7386106534091,316.36842864751816L690.9988052556818,312.1340047866106L691.8010719460227,321.39518904685974L692.0135642045454,284.5440219640732L692.2347296164772,245.18649685382846L692.4038561079545,305.87656873464584L693.2061227982955,314.0788180679083L693.2971909090909,324.54555805027485L694.3813350852273,321.5443875193596L694.6848954545454,297.73608642816544L695.4741524147728,330.96232610940933L696.0899463068182,282.8551917076111L696.3544774857954,321.33791621029377L696.4715650568181,320.4162118136883L697.0309834517045,262.4112414121628L697.2478122869318,305.77647361159325L698.6528631392046,308.392649769783L699.55487109375,306.0224397778511L700.1923478693182,313.8649615943432L700.9685950994318,340.27005764842033L702.0223832386364,289.61298021674156L702.1134513494318,338.32998379319906L702.4386946022728,322.58224944770336L702.9417375,330.708394639194L704.7414168323863,276.3184266090393L704.9669188210227,317.9491433799267L705.4742982954546,326.9953476190567L705.8862730823863,331.9243680238724L707.711971875,310.44035840034485L707.8680886363636,299.0588303208351L708.1456295454545,320.8409516811371L708.5662774857954,313.71224987506866L711.2029161221591,336.4743110463023L711.5108130681818,335.655050419271L711.9704901988637,332.740549698472L712.4258307528409,326.1391914188862L713.5143115056818,332.37651704996824L713.7441500710228,340.8718891367316L713.9392960227273,309.7824003100395L714.2862221590909,334.3713897764683L714.5854459517045,341.8079987093806L715.1535375000001,314.85038626194L715.3356737215909,316.9270154386759L715.6088780539773,333.74451830238104L716.0728917613636,337.85053688287735L717.1787188210227,316.3165293931961L718.0330244318183,276.6616012454033L718.6141257102273,304.63157001137733L718.8699837357955,333.67757323384285L719.3079779829545,245.863062620163L719.8934158380682,328.15872709453106L720.3574295454545,306.91112700104713L720.83011640625,339.2584413588047L721.4719297585227,294.01169914007187L722.26118671875,341.91566805541515L722.4996984375,333.3112092241645L722.9810584517046,322.4371670484543L723.4363990056818,289.16381615400314L723.6098620738636,337.27596762776375L725.1883759943182,318.8833796530962L725.3358196022727,336.84068693965673L725.8171796164772,295.0994962751866L727.0574405539774,338.7356492802501L727.9767948153409,339.393350251019L728.1329115767045,297.1688331961632L728.2630088778409,310.55750119686127L728.7920712357956,337.7914123535156L728.9134953835227,320.28281646966934L729.4425577414772,317.18598018586636L730.0540150568181,307.1114382445812L730.7391941761364,314.8013585358858L730.8779646306818,321.98676708340645L731.7452799715909,329.97844199836254L732.9812043323864,270.0646744966507L733.5623056107954,259.9097837805748L734.8025665482954,340.4015526846051L734.9716930397727,327.06346917152405L735.0714343039773,337.859887175262L735.3446386363636,273.22036522626877L735.6048332386364,332.6831850335002L736.2900123579545,330.75220435112715L736.7887186789773,253.4451158642769L737.478234375,278.2763897180558L737.6950632102273,230.96819269657138L738.4973299005682,323.83839289844036L739.0133825284091,313.91924622654915L739.4730596590908,300.54149824380875L739.6551958806818,318.38539312779903L739.854678409091,320.1563136577606L740.6049061789773,303.5025084316731L741.6933869318182,317.5900619029999L741.8711865767045,238.2304843068123L742.0012838778409,322.56557124853134L743.1331303977272,329.53949573636055L743.3803152698863,337.105870090425L743.6968853693181,334.93652231246233L743.9267239346591,324.2186748534441L744.2779866477273,312.11998853087425L744.5511909801137,278.57048261165625L744.7073077414773,286.57993334531784L745.0065315340909,303.6202259659767L745.2146872159091,332.27678167819977L745.4835549715909,332.0818256512284L745.8608371448864,314.5705516189337L746.5590259943182,323.50258830189705L747.1184443892046,334.0975283011794L747.4089950284091,282.3971213698387L748.6492559659091,321.0319504439831L748.9788357954545,322.0471188724041L749.1132696732955,256.05643051862717L749.9675752840909,340.0958294533193L750.3578671875,328.17200872302055L750.8695832386363,297.0380868315697L751.8236301136363,322.24429282546043L753.5365779119318,335.7729732170701L754.2998154119318,272.28376734256744L754.6901073153409,328.3156326711178L755.1888136363636,314.8374741077423L755.3709498579545,328.22353634238243L755.8739927556818,341.06377701461315L756.2729578125,267.0172851085663L756.7673275568181,323.9032669663429L756.9884929687499,313.22280663251877L757.1185902698863,336.3575939014554L757.7820865056818,315.9519684612751L758.0292713778409,301.7557549774647L758.7794991477273,339.95266518741846L758.9659719460228,322.8407734185457L759.6771705255682,319.7155718803406L760.2712815340909,338.2953039854765L761.2253284090909,325.99214497208595L762.8341983664773,335.1730215102434L762.9382762073864,322.33605425059795L763.6017724431819,307.38289165496826L763.8706401988636,339.62832725793123L764.3086344460227,322.8072722554207L764.8376968039773,238.38823902606964L765.0154964488636,294.5435779094696L765.3667591619319,340.62790916487575L765.5835879971592,330.6057056337595L765.9435238636364,311.2931698858738L766.1776990056819,270.04735457897186L766.5202885653408,289.20822221040726L766.7154345170454,331.7704247236252L767.1577653409091,315.2840540111065L767.5480572443182,321.8301056623459L767.7171837357954,312.6338300406933L768.6061819602273,315.51330956816673L768.9487715198863,333.38113601505756L769.2349855823863,333.3465339913964L769.6729798295454,264.8642222881317L770.0589351562501,339.1327487975359L770.6270267045454,319.4826626330614L772.0754433238636,335.8390496969223L773.6149280539772,329.6190515458584L774.5993309659091,331.1477028131485L775.1327299005682,322.85459953546524L776.3729908380682,311.46261382102966L776.8586874289772,333.16587510704994L777.5872323153409,339.3149098865688L778.8058103693182,332.5993262529373L778.8882053267046,329.76234275102615L779.2611509232954,332.57192465662956L779.8552619318182,337.52614709734917L780.5014118607954,329.32153399288654L780.7269138494319,288.11151015758514L780.9307329545455,283.7156130671501L782.8778558948864,260.51564383506775L783.0990213068181,248.59304982423785L783.3462061789772,320.42446556687355L783.5066595170454,311.7483190000057L783.8535856534091,333.7377143576741L784.3522919744318,319.5512228012085L785.2412901988636,334.61933835595846L785.5752066051136,330.116004191339L786.4121659090908,319.4085365831852L786.9976037642045,334.86615366488695L787.2621349431818,316.05597871541977L787.5396758522727,293.9705513715744L787.7348218039773,343.2877551317215L789.6255692471591,340.768759354949L791.8198770596591,264.5063810348511L792.2318518465909,296.319159001112L793.1165134943182,318.214546918869L794.4955448863636,336.86736147105694L795.2978115767045,278.54193153977394L795.618718252841,322.24802862107754L796.3125705255682,297.26599845290184L797.3099831676136,337.89117689430714L797.8607284090909,324.23780108988285L798.2423471590909,325.34355986118317L798.6933511363636,304.00273340940475L799.3655205255682,273.8422660827637L799.9032560369319,328.00664845108986L799.9422852272727,326.89684922993183L800.1677872159091,320.54895247519016L800.6187911931818,336.2765267044306L802.1929685369319,320.703455388546L802.5572409801136,285.9370264708996L803.107986221591,337.3760821968317L803.5242975852273,272.1756388545037L804.6778269886364,331.9732628688216L805.5928446732954,294.3262924551964L806.6899985795455,337.91001792252064L807.5746602272727,332.0495106950402L807.8652108664774,342.616297185421L808.1080591619318,342.0077233314514L808.9450184659091,329.5537453442812L809.6345341619318,333.2125736325979L810.1462502130681,275.46392548084265L811.3344722301136,313.96771866083145L811.7941493607955,340.2818548977375L812.13240234375,308.8393204212189L812.8175814630681,325.5648598372936L813.0083908380682,284.5096025168896L813.173180752841,332.85683903098106L813.4290387784091,328.8950677514076L814.1142178977273,328.2401864528656L814.4828269176137,337.9088814109564L815.1680060369318,338.44789254665375L815.7144147017045,336.91674786806107L815.9095606534091,263.39632469415665L816.2694965198864,337.31379444897175L816.6988176136364,335.46271312236786L818.1819268465908,277.8693586885929L818.8671059659091,317.76006112992764L819.2920904829546,332.10234551876783L819.7430944602273,278.4820032417775L819.9816061789772,341.9037908613682L820.202771590909,337.8484604805708L820.519341690341,342.5536410436034L821.2739060369319,331.36033310741186L821.7465928977273,337.6759311109781L822.4447817471591,341.5816352069378L822.8133907670455,312.534929767251L823.6330037642045,330.1230587735772L823.7977936789772,325.1465328335762L824.0666614346591,223.1980835199356L826.2999984375,334.02849818766117L826.5255004261364,315.32767574489117L826.7813584517046,273.8686608076096L827.024206747159,330.2581275552511L827.2844013494318,286.390788435936L827.4318449573864,325.77861692011356L828.2991602982954,330.22705390304327L828.6460864346591,292.19032484292984L829.0970904119318,299.73948407173157L829.8039524147727,297.67115834355354L830.2072540482955,313.9430740773678L830.6235654119318,342.2895279638469L831.0008475852273,334.97158455848694L833.2298480113636,285.0883461833L833.3903013494318,300.2355994582176L834.0841536221591,334.4422532171011L834.36169453125,338.9128986299038L834.8257082386364,339.0852799937129L835.3504340198864,337.74175695329905L835.7493990767045,339.7460782825947L836.0356131392045,327.75804194808006L836.6167144176137,323.7206256687641L838.0000823863636,332.970759190619L838.1431894176136,343.728479353711L839.0712168323864,318.00109016895294L839.9211858664772,337.9897660315037L840.7711549005681,312.31897312402725L841.1180810369318,329.8676407635212L841.3349098721591,313.3431558609009L842.0287621448864,342.91902789101005L842.8483751420455,337.90234538912773L843.3037156960227,327.0348230302334L843.568246875,332.6770519763231L843.7720659801137,325.7482011914253L844.0496068892046,321.963727876544L844.2707723011364,338.07013749331236L844.8215175426136,333.30958980321884L845.8449496448864,274.12100958824163L846.1311637073863,334.6985322535038L847.0678642755682,324.2556741386652L847.2326541903409,322.3554462492466L847.6186095170455,323.5967113375664L847.7964091619318,319.34170711040497L849.0540164062501,335.958516292274L849.7175126420454,296.8078071177006L849.9256683238636,315.4391597509384L850.2812676136364,328.30977942049503L850.7539544744319,334.71463787555695L851.0835343039773,337.2140104621649L851.3784215198863,293.5111587047577L851.963859375,334.5608415007591L852.2197174005681,329.41054704785347L852.3888438920454,294.5435692667961L852.4929217329545,313.90707302093506L852.9916280539774,335.5587310642004L853.34722734375,319.7673674225807L853.6160950994317,327.8305496573448L854.6612100852273,342.2276880145073L855.1512432528409,337.2206285893917L855.8884612926137,303.7405708730221L856.0836072443182,297.06793862581253L856.9292397017045,317.12571266293526L858.3082710937499,324.0421806573868L858.8980455255681,335.1972642093897L859.7263316761364,318.38507118821144L861.0836801846591,342.46127949282527L861.8729371448864,318.2868342399597L862.1851706676136,338.1668057963252L863.3040074573864,289.69422566890717L863.7680211647727,334.0978340357542L863.9805134232954,342.910520799458L864.2710640625,323.392147898674L864.8391556107955,320.5455191731453L865.9102900568181,330.0888067781925L866.1054360085227,291.2288187742234L866.7992882812499,338.1031244173646L867.2719751420456,339.2424275651574" style="fill: none;" fill="none"></path></g></g></g></g></g></g><g transform="translate(61, 377)" clip-path="url(#clip_1)"><clipPath id="clip_1"><rect width="954" height="23"></rect></clipPath><g><g><line x1="0" y1="0" x2="0" y2="5" style="visibility: inherit;" fill="rgb(0, 0, 0)" stroke="rgb(204, 204, 204)" stroke-width="1px"></line><line x1="86.7315340909091" y1="0" x2="86.7315340909091" y2="5" style="visibility: inherit;" fill="rgb(0, 0, 0)" stroke="rgb(204, 204, 204)" stroke-width="1px"></line><line x1="173.4630681818182" y1="0" x2="173.4630681818182" y2="5" style="visibility: inherit;" fill="rgb(0, 0, 0)" stroke="rgb(204, 204, 204)" stroke-width="1px"></line><line x1="260.19460227272725" y1="0" x2="260.19460227272725" y2="5" style="visibility: inherit;" fill="rgb(0, 0, 0)" stroke="rgb(204, 204, 204)" stroke-width="1px"></line><line x1="346.9261363636364" y1="0" x2="346.9261363636364" y2="5" style="visibility: inherit;" fill="rgb(0, 0, 0)" stroke="rgb(204, 204, 204)" stroke-width="1px"></line><line x1="433.65767045454544" y1="0" x2="433.65767045454544" y2="5" style="visibility: inherit;" fill="rgb(0, 0, 0)" stroke="rgb(204, 204, 204)" stroke-width="1px"></line><line x1="520.3892045454545" y1="0" x2="520.3892045454545" y2="5" style="visibility: inherit;" fill="rgb(0, 0, 0)" stroke="rgb(204, 204, 204)" stroke-width="1px"></line><line x1="607.1207386363636" y1="0" x2="607.1207386363636" y2="5" style="visibility: inherit;" fill="rgb(0, 0, 0)" stroke="rgb(204, 204, 204)" stroke-width="1px"></line><line x1="693.8522727272727" y1="0" x2="693.8522727272727" y2="5" style="visibility: inherit;" fill="rgb(0, 0, 0)" stroke="rgb(204, 204, 204)" stroke-width="1px"></line><line x1="780.5838068181819" y1="0" x2="780.5838068181819" y2="5" style="visibility: inherit;" fill="rgb(0, 0, 0)" stroke="rgb(204, 204, 204)" stroke-width="1px"></line><line x1="867.3153409090909" y1="0" x2="867.3153409090909" y2="5" style="visibility: inherit;" fill="rgb(0, 0, 0)" stroke="rgb(204, 204, 204)" stroke-width="1px"></line><line x1="954.046875" y1="0" x2="954.046875" y2="5" style="visibility: inherit;" fill="rgb(0, 0, 0)" stroke="rgb(204, 204, 204)" stroke-width="1px"></line></g><g transform="translate(0, 8)"><text x="0" y="0" dx="0em" dy="0.95em" style="text-anchor: middle; visibility: hidden; font-family: Roboto, sans-serif; font-size: 12px; font-weight: 200;" fill="rgb(33, 33, 33)" stroke="none" stroke-width="1px">0</text><text x="86.7315340909091" y="0" dx="0em" dy="0.95em" style="text-anchor: middle; visibility: inherit; font-family: Roboto, sans-serif; font-size: 12px; font-weight: 200;" fill="rgb(33, 33, 33)" stroke="none" stroke-width="1px">20k</text><text x="173.4630681818182" y="0" dx="0em" dy="0.95em" style="text-anchor: middle; visibility: inherit; font-family: Roboto, sans-serif; font-size: 12px; font-weight: 200;" fill="rgb(33, 33, 33)" stroke="none" stroke-width="1px">40k</text><text x="260.19460227272725" y="0" dx="0em" dy="0.95em" style="text-anchor: middle; visibility: inherit; font-family: Roboto, sans-serif; font-size: 12px; font-weight: 200;" fill="rgb(33, 33, 33)" stroke="none" stroke-width="1px">60k</text><text x="346.9261363636364" y="0" dx="0em" dy="0.95em" style="text-anchor: middle; visibility: inherit; font-family: Roboto, sans-serif; font-size: 12px; font-weight: 200;" fill="rgb(33, 33, 33)" stroke="none" stroke-width="1px">80k</text><text x="433.65767045454544" y="0" dx="0em" dy="0.95em" style="text-anchor: middle; visibility: inherit; font-family: Roboto, sans-serif; font-size: 12px; font-weight: 200;" fill="rgb(33, 33, 33)" stroke="none" stroke-width="1px">100k</text><text x="520.3892045454545" y="0" dx="0em" dy="0.95em" style="text-anchor: middle; visibility: inherit; font-family: Roboto, sans-serif; font-size: 12px; font-weight: 200;" fill="rgb(33, 33, 33)" stroke="none" stroke-width="1px">120k</text><text x="607.1207386363636" y="0" dx="0em" dy="0.95em" style="text-anchor: middle; visibility: inherit; font-family: Roboto, sans-serif; font-size: 12px; font-weight: 200;" fill="rgb(33, 33, 33)" stroke="none" stroke-width="1px">140k</text><text x="693.8522727272727" y="0" dx="0em" dy="0.95em" style="text-anchor: middle; visibility: inherit; font-family: Roboto, sans-serif; font-size: 12px; font-weight: 200;" fill="rgb(33, 33, 33)" stroke="none" stroke-width="1px">160k</text><text x="780.5838068181819" y="0" dx="0em" dy="0.95em" style="text-anchor: middle; visibility: inherit; font-family: Roboto, sans-serif; font-size: 12px; font-weight: 200;" fill="rgb(33, 33, 33)" stroke="none" stroke-width="1px">180k</text><text x="867.3153409090909" y="0" dx="0em" dy="0.95em" style="text-anchor: middle; visibility: inherit; font-family: Roboto, sans-serif; font-size: 12px; font-weight: 200;" fill="rgb(33, 33, 33)" stroke="none" stroke-width="1px">200k</text><text x="954.046875" y="0" dx="0em" dy="0.95em" style="text-anchor: middle; visibility: hidden; font-family: Roboto, sans-serif; font-size: 12px; font-weight: 200;" fill="rgb(33, 33, 33)" stroke="none" stroke-width="1px">220k</text></g><line x1="0" y1="0" x2="954.046875" y2="0" fill="rgb(0, 0, 0)" stroke="rgb(204, 204, 204)" stroke-width="1px"></line></g></g></g></g></svg>